<svg xmlns="http://www.w3.org/2000/svg" viewBox="0 0 239.94 64.64"><defs><style>.cls-1{fill:#3e5a76;}</style></defs><g id="Capa_2" data-name="Capa 2"><g id="Capa_1-2" data-name="Capa 1"><path class="cls-1" d="M75.12.92h3.25a5.57,5.57,0,0,1,1.3.14,3.17,3.17,0,0,1,1.13.46,2.25,2.25,0,0,1,.78.84,2.54,2.54,0,0,1,.3,1.29,2.4,2.4,0,0,1-.5,1.52A2.47,2.47,0,0,1,80,6v0a2.66,2.66,0,0,1,1.81.8,2.7,2.7,0,0,1,.65,1.91,3.27,3.27,0,0,1-.13.77,2.6,2.6,0,0,1-.54,1,3.58,3.58,0,0,1-1.2.87,5.12,5.12,0,0,1-2.1.36H75.12Zm1.11,4.75h2.23a3.49,3.49,0,0,0,.79-.1A2.2,2.2,0,0,0,80,5.24a1.82,1.82,0,0,0,.51-.59,1.71,1.71,0,0,0,.2-.88,2.79,2.79,0,0,0-.06-.48,1.61,1.61,0,0,0-.31-.61,2,2,0,0,0-.7-.53,2.89,2.89,0,0,0-1.25-.22H76.23Zm0,5.08h2.12a4.93,4.93,0,0,0,1.12-.12,2.68,2.68,0,0,0,.91-.38A1.84,1.84,0,0,0,81,9.62a1.79,1.79,0,0,0,.22-.92,1.86,1.86,0,0,0-.69-1.59,3.32,3.32,0,0,0-2-.52H76.23Z"/><path class="cls-1" d="M85.94,8.45a3,3,0,0,0,.26,1,2.75,2.75,0,0,0,.57.82,2.67,2.67,0,0,0,.81.54,2.55,2.55,0,0,0,1,.2A2.61,2.61,0,0,0,90,10.65a3,3,0,0,0,.9-.86l.78.64a3.82,3.82,0,0,1-1.42,1.16,3.92,3.92,0,0,1-1.67.36,3.79,3.79,0,0,1-1.48-.29,3.45,3.45,0,0,1-1.18-.79,3.62,3.62,0,0,1-.78-1.19,3.89,3.89,0,0,1-.28-1.5,3.89,3.89,0,0,1,.28-1.5,3.48,3.48,0,0,1,1.92-2,3.76,3.76,0,0,1,1.43-.28A3.59,3.59,0,0,1,90,4.7,3.33,3.33,0,0,1,91,5.48a3.18,3.18,0,0,1,.66,1.13A3.94,3.94,0,0,1,91.94,8v.45Zm4.89-.82a2.17,2.17,0,0,0-2.34-2.3,2.37,2.37,0,0,0-.95.19,2.79,2.79,0,0,0-.81.51,2.68,2.68,0,0,0-.56.74,2,2,0,0,0-.2.86Z"/><path class="cls-1" d="M104.87,6.28a2,2,0,0,0-.73-.67,2,2,0,0,0-1.07-.28,2.74,2.74,0,0,0-1.13.2,2.35,2.35,0,0,0-.85.6,2.45,2.45,0,0,0-.54.91,3.7,3.7,0,0,0,0,2.28,2.45,2.45,0,0,0,.54.91,2.35,2.35,0,0,0,.85.6,2.74,2.74,0,0,0,1.13.2,2,2,0,0,0,1.07-.28,2.07,2.07,0,0,0,.73-.67l.83.63a3.51,3.51,0,0,1-1.21.92,3.63,3.63,0,0,1-1.42.32,4,4,0,0,1-1.58-.27,3.48,3.48,0,0,1-1.21-.79,3.41,3.41,0,0,1-.76-1.2,4.17,4.17,0,0,1-.26-1.51,4.13,4.13,0,0,1,.26-1.51,3.32,3.32,0,0,1,.76-1.2,3.48,3.48,0,0,1,1.21-.79,4,4,0,0,1,1.58-.27,3.63,3.63,0,0,1,1.42.32,3.28,3.28,0,0,1,1.21.92Z"/><path class="cls-1" d="M115.1,8.18a3.89,3.89,0,0,1-.28,1.5,3.49,3.49,0,0,1-.79,1.19,3.58,3.58,0,0,1-1.21.79,4.23,4.23,0,0,1-3.08,0,3.64,3.64,0,0,1-2-2,3.89,3.89,0,0,1-.28-1.5,3.89,3.89,0,0,1,.28-1.5,3.62,3.62,0,0,1,2-2,4.37,4.37,0,0,1,3.08,0,3.73,3.73,0,0,1,1.21.79,3.63,3.63,0,0,1,.79,1.2A3.89,3.89,0,0,1,115.1,8.18Zm-1.1,0a3.18,3.18,0,0,0-.2-1.12,2.56,2.56,0,0,0-1.4-1.51,2.71,2.71,0,0,0-1.13-.22,2.75,2.75,0,0,0-1.13.22,2.46,2.46,0,0,0-.84.61,2.7,2.7,0,0,0-.54.9,3.4,3.4,0,0,0,0,2.24,2.8,2.8,0,0,0,.54.9,2.46,2.46,0,0,0,.84.61,2.92,2.92,0,0,0,1.13.22,2.88,2.88,0,0,0,1.13-.22,2.54,2.54,0,0,0,.86-.61,2.64,2.64,0,0,0,.54-.9A3.18,3.18,0,0,0,114,8.18Z"/><path class="cls-1" d="M118.7,4.59c0,.2,0,.39,0,.58s0,.38,0,.57h0a2.38,2.38,0,0,1,.43-.53,2.44,2.44,0,0,1,.59-.42,3.14,3.14,0,0,1,.68-.28,2.55,2.55,0,0,1,.72-.1,2.61,2.61,0,0,1,2,.73,3,3,0,0,1,.66,2.07v4.55h-1v-4A3.3,3.3,0,0,0,122.47,6a1.68,1.68,0,0,0-1.54-.64l-.43.06a1.8,1.8,0,0,0-.74.34,2.35,2.35,0,0,0-.7.83,3.07,3.07,0,0,0-.31,1.53v3.67h-1V6.17c0-.19,0-.44,0-.73s0-.58,0-.85Z"/><path class="cls-1" d="M130.43,5.51h-1.71v6.25h-1V5.51h-1.52V4.59h1.52v-2a2.59,2.59,0,0,1,.67-2A2.46,2.46,0,0,1,130.12,0l.44,0,.44.08-.19.92L130.43,1l-.4,0a1.35,1.35,0,0,0-.68.14.94.94,0,0,0-.4.39,1.7,1.7,0,0,0-.18.59,5.31,5.31,0,0,0-.05.72V4.59h1.71Z"/><path class="cls-1" d="M133.89,1.84a.7.7,0,0,1-.23.53.8.8,0,0,1-.51.2.78.78,0,0,1-.51-.2.7.7,0,0,1-.23-.53.69.69,0,0,1,.23-.53.75.75,0,0,1,.51-.21.76.76,0,0,1,.51.21A.69.69,0,0,1,133.89,1.84Zm-.23,9.92h-1V4.59h1Z"/><path class="cls-1" d="M144.07,11.76h-1V10.57h0a2.94,2.94,0,0,1-.59.63,3.4,3.4,0,0,1-.71.42,3,3,0,0,1-.76.25,4,4,0,0,1-.74.08,4.08,4.08,0,0,1-1.55-.29,3.58,3.58,0,0,1-1.21-.79,3.49,3.49,0,0,1-.79-1.19,3.89,3.89,0,0,1-.28-1.5,3.89,3.89,0,0,1,.28-1.5,3.63,3.63,0,0,1,.79-1.2,3.73,3.73,0,0,1,1.21-.79,4.28,4.28,0,0,1,1.55-.28,4,4,0,0,1,.74.08,3.36,3.36,0,0,1,.76.24,4,4,0,0,1,.71.43,2.54,2.54,0,0,1,.59.63h0V.18h1ZM137.5,8.18a3.18,3.18,0,0,0,.2,1.12,2.64,2.64,0,0,0,.54.9,2.54,2.54,0,0,0,.86.61,2.88,2.88,0,0,0,1.13.22,3,3,0,0,0,1.14-.22,2.79,2.79,0,0,0,.92-.61,3,3,0,0,0,.6-3.14,2.84,2.84,0,0,0-.6-.9,2.79,2.79,0,0,0-.92-.61,2.86,2.86,0,0,0-1.14-.22,2.71,2.71,0,0,0-1.13.22,2.56,2.56,0,0,0-1.4,1.51A3.18,3.18,0,0,0,137.5,8.18Z"/><path class="cls-1" d="M147.78,8.45a3.19,3.19,0,0,0,.26,1,3.17,3.17,0,0,0,.57.82,2.85,2.85,0,0,0,.82.54,2.51,2.51,0,0,0,1,.2,2.55,2.55,0,0,0,1.4-.38,2.76,2.76,0,0,0,.9-.86l.79.64a3.9,3.9,0,0,1-1.42,1.16,4,4,0,0,1-1.67.36,3.84,3.84,0,0,1-1.49-.29,3.55,3.55,0,0,1-1.18-.79A3.76,3.76,0,0,1,147,9.68a3.89,3.89,0,0,1-.29-1.5,4.08,4.08,0,0,1,.28-1.5,3.74,3.74,0,0,1,.77-1.2,3.69,3.69,0,0,1,1.15-.79,3.76,3.76,0,0,1,1.43-.28,3.56,3.56,0,0,1,1.46.29,3.14,3.14,0,0,1,1.09.78,3.2,3.2,0,0,1,.67,1.13A4.18,4.18,0,0,1,153.78,8v.45Zm4.89-.82A2.27,2.27,0,0,0,152.06,6a2.28,2.28,0,0,0-1.73-.64,2.44,2.44,0,0,0-1,.19,2.79,2.79,0,0,0-.81.51,2.64,2.64,0,0,0-.55.74,1.88,1.88,0,0,0-.21.86Z"/><path class="cls-1" d="M157.38,4.59c0,.2,0,.39,0,.58s0,.38,0,.57h0a2.13,2.13,0,0,1,.43-.53,2.39,2.39,0,0,1,.58-.42,3.44,3.44,0,0,1,.69-.28,2.53,2.53,0,0,1,.71-.1,2.63,2.63,0,0,1,2,.73,3,3,0,0,1,.66,2.07v4.55h-1v-4A3.31,3.31,0,0,0,161.15,6a1.69,1.69,0,0,0-1.54-.64l-.43.06a1.83,1.83,0,0,0-.75.34,2.46,2.46,0,0,0-.7.83,3.19,3.19,0,0,0-.3,1.53v3.67h-1V6.17c0-.19,0-.44,0-.73s0-.58-.06-.85Z"/><path class="cls-1" d="M169.47,5.51H167.4V9.74a2.34,2.34,0,0,0,.07.65.91.91,0,0,0,.22.39A.69.69,0,0,0,168,11a1.42,1.42,0,0,0,.42.06A2.08,2.08,0,0,0,169,11a2.85,2.85,0,0,0,.51-.2l0,.94a3.3,3.3,0,0,1-1.36.26,2.62,2.62,0,0,1-.61-.08,1.44,1.44,0,0,1-.58-.29,1.63,1.63,0,0,1-.43-.58,2.41,2.41,0,0,1-.17-1V5.51h-1.52V4.59h1.52v-2h1v2h2.07Z"/><path class="cls-1" d="M9.2,32.18H8.09V27.51L4,21.34H5.4l3.24,5.12,3.25-5.12h1.38L9.2,27.51Z"/><path class="cls-1" d="M20.81,28.6a3.89,3.89,0,0,1-.28,1.5,3.64,3.64,0,0,1-.79,1.19,3.52,3.52,0,0,1-1.21.79,4.11,4.11,0,0,1-1.55.29,4,4,0,0,1-1.53-.29,3.43,3.43,0,0,1-1.21-.79,3.49,3.49,0,0,1-.79-1.19,4.16,4.16,0,0,1,0-3,3.63,3.63,0,0,1,.79-1.2,3.55,3.55,0,0,1,1.21-.78A4,4,0,0,1,17,24.83a4.11,4.11,0,0,1,1.55.29,3.65,3.65,0,0,1,1.21.78,3.8,3.8,0,0,1,.79,1.2A3.89,3.89,0,0,1,20.81,28.6Zm-1.11,0a3.18,3.18,0,0,0-.19-1.12,2.7,2.7,0,0,0-.54-.9,2.54,2.54,0,0,0-.86-.61,3,3,0,0,0-2.26,0,2.6,2.6,0,0,0-.85.61,2.52,2.52,0,0,0-.53.9,3.24,3.24,0,0,0,0,2.24,2.52,2.52,0,0,0,.53.9,2.6,2.6,0,0,0,.85.61,3,3,0,0,0,2.26,0,2.54,2.54,0,0,0,.86-.61,2.7,2.7,0,0,0,.54-.9A3.18,3.18,0,0,0,19.7,28.6Z"/><path class="cls-1" d="M28.64,32.18c0-.19,0-.38,0-.57V31h0a2.43,2.43,0,0,1-.44.53,2.46,2.46,0,0,1-.58.42,3.36,3.36,0,0,1-.68.28,3,3,0,0,1-.72.1,2.67,2.67,0,0,1-2-.73,3,3,0,0,1-.66-2.08V25h1v4A5.59,5.59,0,0,0,24.55,30a1.93,1.93,0,0,0,.32.77,1.31,1.31,0,0,0,.6.48,2.52,2.52,0,0,0,.94.16l.43-.06a1.91,1.91,0,0,0,.75-.34,2.46,2.46,0,0,0,.7-.83,3.21,3.21,0,0,0,.31-1.53V25h1v5.59c0,.19,0,.43,0,.73s0,.58.06.84Z"/><path class="cls-1" d="M32.89,27.25c0-.31,0-.64,0-1s0-.75,0-1.27h1v1.33h0a1.94,1.94,0,0,1,.31-.56,2.18,2.18,0,0,1,.48-.48,2.31,2.31,0,0,1,.66-.35,2.83,2.83,0,0,1,.86-.13,2.86,2.86,0,0,1,.75.09l-.2,1a1.78,1.78,0,0,0-.59-.08,2.08,2.08,0,0,0-1,.23,2.21,2.21,0,0,0-.69.56,2.57,2.57,0,0,0-.41.74,2.76,2.76,0,0,0-.13.77v4h-1Z"/><path class="cls-1" d="M50.92,32.18h-1V31h0a2.9,2.9,0,0,1-.58.63,4.33,4.33,0,0,1-.71.43,3.53,3.53,0,0,1-.76.24,4,4,0,0,1-2.29-.21,3.43,3.43,0,0,1-1.21-.79,3.49,3.49,0,0,1-.79-1.19,4,4,0,0,1,0-3,3.63,3.63,0,0,1,.79-1.2,3.55,3.55,0,0,1,1.21-.78,4,4,0,0,1,2.29-.21,3.53,3.53,0,0,1,.76.24,4.33,4.33,0,0,1,.71.43,2.9,2.9,0,0,1,.58.63h0v-5.6h1ZM44.35,28.6a3.18,3.18,0,0,0,.19,1.12,2.57,2.57,0,0,0,.55.9,2.5,2.5,0,0,0,.85.61,2.88,2.88,0,0,0,1.13.22,3.14,3.14,0,0,0,1.15-.22,2.75,2.75,0,0,0,.91-.61,2.54,2.54,0,0,0,.6-.9,3,3,0,0,0,0-2.24,2.54,2.54,0,0,0-.6-.9,2.75,2.75,0,0,0-.91-.61,3.14,3.14,0,0,0-1.15-.22,2.88,2.88,0,0,0-1.13.22,2.5,2.5,0,0,0-.85.61,2.57,2.57,0,0,0-.55.9A3.18,3.18,0,0,0,44.35,28.6Z"/><path class="cls-1" d="M58.53,27.79V27.6a1.63,1.63,0,0,0-1.84-1.85,3.19,3.19,0,0,0-2.2.84l-.62-.72a4.1,4.1,0,0,1,3.05-1,3.14,3.14,0,0,1,1,.16,2.17,2.17,0,0,1,.83.46,2.2,2.2,0,0,1,.57.79,2.65,2.65,0,0,1,.22,1.13v3.21c0,.27,0,.56,0,.86s0,.55.08.74h-1a4.5,4.5,0,0,1-.07-.56q0-.32,0-.6h0a2.65,2.65,0,0,1-1.05,1,3.17,3.17,0,0,1-1.48.32,3.6,3.6,0,0,1-.93-.13,2.45,2.45,0,0,1-.79-.4,2.07,2.07,0,0,1-.55-.66,1.88,1.88,0,0,1-.21-.91A2,2,0,0,1,54,28.9a2.79,2.79,0,0,1,1.14-.74,5.34,5.34,0,0,1,1.46-.31c.52,0,1-.06,1.43-.06Zm-.52.83-1,0a5.59,5.59,0,0,0-1.11.19,2.36,2.36,0,0,0-.91.45,1,1,0,0,0-.37.84,1.28,1.28,0,0,0,.14.61,1.3,1.3,0,0,0,.4.41,1.63,1.63,0,0,0,.54.23,2.48,2.48,0,0,0,.61.07,2.19,2.19,0,0,0,1-.19,2,2,0,0,0,.69-.49,2,2,0,0,0,.4-.74,2.9,2.9,0,0,0,.13-.89v-.52Z"/><path class="cls-1" d="M66.41,25.93H64.33v4.23a2.3,2.3,0,0,0,.08.65.9.9,0,0,0,.21.39.77.77,0,0,0,.34.19,1.37,1.37,0,0,0,.42.06,2.14,2.14,0,0,0,.54-.08,2.48,2.48,0,0,0,.5-.2l0,.94a3.35,3.35,0,0,1-1.37.26,2.69,2.69,0,0,1-.61-.08,1.4,1.4,0,0,1-.57-.29,1.52,1.52,0,0,1-.43-.58,2.25,2.25,0,0,1-.17-1V25.93H61.79V25h1.53V23h1v2h2.08Z"/><path class="cls-1" d="M73.19,27.79V27.6a1.63,1.63,0,0,0-1.84-1.85,3.19,3.19,0,0,0-2.2.84l-.62-.72a4.1,4.1,0,0,1,3-1,3.14,3.14,0,0,1,1,.16,2.17,2.17,0,0,1,.83.46,2.2,2.2,0,0,1,.57.79,2.65,2.65,0,0,1,.22,1.13v3.21c0,.27,0,.56,0,.86s0,.55.08.74h-1a4.5,4.5,0,0,1-.07-.56q0-.32,0-.6h0a2.65,2.65,0,0,1-1,1,3.17,3.17,0,0,1-1.48.32,3.6,3.6,0,0,1-.93-.13,2.45,2.45,0,0,1-.79-.4,2.07,2.07,0,0,1-.55-.66,1.88,1.88,0,0,1-.21-.91,2,2,0,0,1,.45-1.37,2.79,2.79,0,0,1,1.14-.74,5.42,5.42,0,0,1,1.46-.31c.52,0,1-.06,1.43-.06Zm-.52.83-1,0a5.72,5.72,0,0,0-1.11.19,2.36,2.36,0,0,0-.91.45,1,1,0,0,0-.37.84,1.28,1.28,0,0,0,.14.61,1.3,1.3,0,0,0,.4.41,1.63,1.63,0,0,0,.54.23,2.48,2.48,0,0,0,.61.07,2.19,2.19,0,0,0,1-.19,2,2,0,0,0,.69-.49,2,2,0,0,0,.4-.74,2.9,2.9,0,0,0,.13-.89v-.52Z"/><path class="cls-1" d="M87,27.79V27.6a1.63,1.63,0,0,0-1.84-1.85,3.19,3.19,0,0,0-2.2.84l-.62-.72a4.1,4.1,0,0,1,3-1,3.14,3.14,0,0,1,1,.16,2.17,2.17,0,0,1,.83.46,2.2,2.2,0,0,1,.57.79A2.65,2.65,0,0,1,88,27.37v3.21c0,.27,0,.56,0,.86s0,.55.08.74h-1a4.5,4.5,0,0,1-.07-.56q0-.32,0-.6h0a2.65,2.65,0,0,1-1,1,3.17,3.17,0,0,1-1.48.32,3.6,3.6,0,0,1-.93-.13,2.45,2.45,0,0,1-.79-.4,2.07,2.07,0,0,1-.55-.66,1.88,1.88,0,0,1-.21-.91,2,2,0,0,1,.45-1.37,2.79,2.79,0,0,1,1.14-.74,5.42,5.42,0,0,1,1.46-.31c.52,0,1-.06,1.43-.06Zm-.52.83-1,0a5.72,5.72,0,0,0-1.11.19,2.36,2.36,0,0,0-.91.45,1,1,0,0,0-.37.84,1.28,1.28,0,0,0,.14.61,1.3,1.3,0,0,0,.4.41,1.63,1.63,0,0,0,.54.23,2.48,2.48,0,0,0,.61.07,2.19,2.19,0,0,0,1-.19,2,2,0,0,0,.69-.49,2,2,0,0,0,.4-.74,2.9,2.9,0,0,0,.13-.89v-.52Z"/><path class="cls-1" d="M92.15,25c0,.19,0,.38,0,.57v.58h0a2.27,2.27,0,0,1,.44-.54,2.46,2.46,0,0,1,.58-.42,3.36,3.36,0,0,1,.68-.28,3,3,0,0,1,.72-.1,2.68,2.68,0,0,1,2,.73,3,3,0,0,1,.66,2.07v4.55h-1v-4a3.4,3.4,0,0,0-.41-1.83,1.69,1.69,0,0,0-1.54-.64l-.43.06a1.91,1.91,0,0,0-.75.34,2.46,2.46,0,0,0-.7.83,3.18,3.18,0,0,0-.31,1.53v3.67h-1V26.59c0-.19,0-.44,0-.73s0-.58-.06-.84Z"/><path class="cls-1" d="M107.7,32.18h-1V31h0a2.9,2.9,0,0,1-.58.63,4.33,4.33,0,0,1-.71.43,3.36,3.36,0,0,1-.76.24,4,4,0,0,1-2.29-.21,3.43,3.43,0,0,1-1.21-.79,3.49,3.49,0,0,1-.79-1.19,4,4,0,0,1,0-3,3.63,3.63,0,0,1,.79-1.2,3.55,3.55,0,0,1,1.21-.78,4,4,0,0,1,2.29-.21,3.36,3.36,0,0,1,.76.24,4.33,4.33,0,0,1,.71.43,2.9,2.9,0,0,1,.58.63h0v-5.6h1Zm-6.57-3.58a3.42,3.42,0,0,0,.19,1.12,2.57,2.57,0,0,0,.55.9,2.6,2.6,0,0,0,.85.61,2.92,2.92,0,0,0,1.13.22,3.1,3.1,0,0,0,1.15-.22,2.9,2.9,0,0,0,.92-.61,2.84,2.84,0,0,0,.6-.9,3.09,3.09,0,0,0,0-2.24,2.84,2.84,0,0,0-.6-.9A2.9,2.9,0,0,0,105,26a3.1,3.1,0,0,0-1.15-.22,2.92,2.92,0,0,0-1.13.22,2.6,2.6,0,0,0-.85.61,2.57,2.57,0,0,0-.55.9A3.42,3.42,0,0,0,101.13,28.6Z"/><path class="cls-1" d="M117.24,22.26a.7.7,0,0,1-.23.53.75.75,0,0,1-.51.2.73.73,0,0,1-.51-.2.7.7,0,0,1-.23-.53.69.69,0,0,1,.23-.53.75.75,0,0,1,.51-.21.76.76,0,0,1,.51.21A.69.69,0,0,1,117.24,22.26ZM117,32.18h-1V25h1Z"/><path class="cls-1" d="M121.21,25c0,.19,0,.38,0,.57v.58h0a2.49,2.49,0,0,1,.43-.54,2.75,2.75,0,0,1,.59-.42,3.14,3.14,0,0,1,.68-.28,3,3,0,0,1,.72-.1,2.68,2.68,0,0,1,2,.73,3,3,0,0,1,.66,2.07v4.55h-1v-4a3.4,3.4,0,0,0-.41-1.83,1.69,1.69,0,0,0-1.54-.64l-.43.06a1.91,1.91,0,0,0-.75.34,2.46,2.46,0,0,0-.7.83,3.18,3.18,0,0,0-.31,1.53v3.67h-1V26.59c0-.19,0-.44,0-.73s0-.58,0-.84Z"/><path class="cls-1" d="M132.93,25.93h-1.71v6.25h-1V25.93h-1.53V25h1.53v-2a2.65,2.65,0,0,1,.66-2,2.46,2.46,0,0,1,1.75-.61,3.25,3.25,0,0,1,.44,0l.44.08-.19.92-.38-.08a2.69,2.69,0,0,0-.4,0,1.49,1.49,0,0,0-.68.14,1,1,0,0,0-.4.39,1.7,1.7,0,0,0-.18.59,5.31,5.31,0,0,0-.05.72V25h1.71Z"/><path class="cls-1" d="M142.19,28.6a3.89,3.89,0,0,1-.28,1.5,3.52,3.52,0,0,1-.8,1.19,3.39,3.39,0,0,1-1.2.79,4.11,4.11,0,0,1-1.55.29,4,4,0,0,1-1.53-.29,3.43,3.43,0,0,1-1.21-.79,3.49,3.49,0,0,1-.79-1.19,4,4,0,0,1,0-3,3.63,3.63,0,0,1,.79-1.2,3.55,3.55,0,0,1,1.21-.78,4,4,0,0,1,1.53-.29,4.11,4.11,0,0,1,1.55.29,3.51,3.51,0,0,1,1.2.78,3.66,3.66,0,0,1,.8,1.2A3.89,3.89,0,0,1,142.19,28.6Zm-1.11,0a3.18,3.18,0,0,0-.19-1.12,2.57,2.57,0,0,0-.55-.9,2.5,2.5,0,0,0-.85-.61,3,3,0,0,0-2.26,0,2.5,2.5,0,0,0-.85.61,2.7,2.7,0,0,0-.54.9,3.4,3.4,0,0,0,0,2.24,2.7,2.7,0,0,0,.54.9,2.5,2.5,0,0,0,.85.61,3,3,0,0,0,2.26,0,2.5,2.5,0,0,0,.85-.61,2.57,2.57,0,0,0,.55-.9A3.18,3.18,0,0,0,141.08,28.6Z"/><path class="cls-1" d="M144.93,27.25c0-.31,0-.64,0-1s0-.75,0-1.27h1v1.33h0a1.94,1.94,0,0,1,.31-.56,2.18,2.18,0,0,1,.48-.48,2.31,2.31,0,0,1,.66-.35,3,3,0,0,1,1.61,0l-.2,1a1.71,1.71,0,0,0-.58-.08,2.05,2.05,0,0,0-1,.23,2.14,2.14,0,0,0-.7.56,2.33,2.33,0,0,0-.4.74,2.44,2.44,0,0,0-.13.77v4h-1Z"/><path class="cls-1" d="M151,26.61c0-.27,0-.53,0-.8l-.06-.79H152V26.1h0a2.34,2.34,0,0,1,1-1,3,3,0,0,1,1.3-.32,3.5,3.5,0,0,1,.62.06,2.14,2.14,0,0,1,.64.23,1.86,1.86,0,0,1,.58.45,2.27,2.27,0,0,1,.45.75,2.4,2.4,0,0,1,1-1.09,3,3,0,0,1,3.44.33,3,3,0,0,1,.66,2.07v4.55h-1V28a3.1,3.1,0,0,0-.38-1.67,1.62,1.62,0,0,0-1.43-.58,2,2,0,0,0-1,.22,1.94,1.94,0,0,0-.62.59,2.86,2.86,0,0,0-.35.84,4.37,4.37,0,0,0-.1,1v3.81h-1V28a3.1,3.1,0,0,0-.38-1.67,1.62,1.62,0,0,0-1.43-.58l-.43.06a1.67,1.67,0,0,0-.68.34,2.37,2.37,0,0,0-.64.83,3.34,3.34,0,0,0-.28,1.53v3.67h-1Z"/><path class="cls-1" d="M169.5,27.79V27.6a1.64,1.64,0,0,0-1.85-1.85,3.2,3.2,0,0,0-2.2.84l-.61-.72a4.07,4.07,0,0,1,3-1,3.1,3.1,0,0,1,1,.16,2.29,2.29,0,0,1,.84.46,2.47,2.47,0,0,1,.57.79,2.81,2.81,0,0,1,.21,1.13v3.21c0,.27,0,.56,0,.86s0,.55.09.74h-1c0-.17-.05-.36-.07-.56s0-.41,0-.6h0a2.74,2.74,0,0,1-1.06,1,3.17,3.17,0,0,1-1.48.32,3.46,3.46,0,0,1-.92-.13,2.41,2.41,0,0,1-.8-.4,2.07,2.07,0,0,1-.55-.66,1.88,1.88,0,0,1-.21-.91A1.93,1.93,0,0,1,165,28.9a2.72,2.72,0,0,1,1.14-.74,5.26,5.26,0,0,1,1.46-.31c.51,0,1-.06,1.42-.06Zm-.53.83-1,0a5.62,5.62,0,0,0-1.1.19,2.22,2.22,0,0,0-.91.45,1,1,0,0,0-.38.84,1.17,1.17,0,0,0,.15.61,1.27,1.27,0,0,0,.39.41,1.6,1.6,0,0,0,.55.23,2.46,2.46,0,0,0,.6.07,2.19,2.19,0,0,0,1-.19,1.93,1.93,0,0,0,.69-.49,2.14,2.14,0,0,0,.41-.74,3.24,3.24,0,0,0,.13-.89v-.52Z"/><path class="cls-1" d="M177.38,25.93H175.3v4.23a2,2,0,0,0,.08.65.9.9,0,0,0,.21.39.69.69,0,0,0,.33.19,1.42,1.42,0,0,0,.42.06,2,2,0,0,0,.54-.08,2.36,2.36,0,0,0,.51-.2l.05.94a3.35,3.35,0,0,1-1.37.26,2.62,2.62,0,0,1-.61-.08,1.51,1.51,0,0,1-.58-.29,1.63,1.63,0,0,1-.43-.58,2.41,2.41,0,0,1-.17-1V25.93h-1.52V25h1.52V23h1v2h2.08Z"/><path class="cls-1" d="M181,22.26a.7.7,0,0,1-.23.53.72.72,0,0,1-.51.2.75.75,0,0,1-.51-.2.7.7,0,0,1-.23-.53.69.69,0,0,1,.23-.53.76.76,0,0,1,.51-.21.73.73,0,0,1,.51.21A.69.69,0,0,1,181,22.26Zm-.23,9.92h-1V25h1Z"/><path class="cls-1" d="M191.3,28.6a3.89,3.89,0,0,1-.29,1.5,3.49,3.49,0,0,1-.79,1.19,3.43,3.43,0,0,1-1.21.79,4,4,0,0,1-1.54.29,4,4,0,0,1-1.53-.29,3.43,3.43,0,0,1-1.21-.79,3.49,3.49,0,0,1-.79-1.19,4,4,0,0,1,0-3,3.63,3.63,0,0,1,.79-1.2,3.55,3.55,0,0,1,1.21-.78,4,4,0,0,1,1.53-.29,4,4,0,0,1,1.54.29,3.55,3.55,0,0,1,1.21.78,3.63,3.63,0,0,1,.79,1.2A3.89,3.89,0,0,1,191.3,28.6Zm-1.11,0a3.18,3.18,0,0,0-.19-1.12,2.57,2.57,0,0,0-.55-.9,2.6,2.6,0,0,0-.85-.61,2.92,2.92,0,0,0-1.13-.22,2.88,2.88,0,0,0-1.13.22,2.4,2.4,0,0,0-.85.61,2.7,2.7,0,0,0-.54.9,3.4,3.4,0,0,0,0,2.24,2.7,2.7,0,0,0,.54.9,2.4,2.4,0,0,0,.85.61,2.88,2.88,0,0,0,1.13.22,2.92,2.92,0,0,0,1.13-.22,2.6,2.6,0,0,0,.85-.61,2.57,2.57,0,0,0,.55-.9A3.18,3.18,0,0,0,190.19,28.6Z"/><path class="cls-1" d="M194.9,25a5.44,5.44,0,0,1,0,.57c0,.19,0,.38,0,.58h0a2.49,2.49,0,0,1,.43-.54,2.75,2.75,0,0,1,.59-.42,3.14,3.14,0,0,1,.68-.28,3,3,0,0,1,.72-.1,2.64,2.64,0,0,1,2,.73,2.93,2.93,0,0,1,.67,2.07v4.55h-1v-4a3.4,3.4,0,0,0-.41-1.83,1.69,1.69,0,0,0-1.54-.64l-.43.06a1.91,1.91,0,0,0-.75.34,2.46,2.46,0,0,0-.7.83,3.07,3.07,0,0,0-.31,1.53v3.67h-1V26.59c0-.19,0-.44,0-.73s0-.58-.05-.84Z"/><path class="cls-1" d="M212.94,27.79V27.6a1.63,1.63,0,0,0-1.84-1.85,3.17,3.17,0,0,0-2.2.84l-.62-.72a4.1,4.1,0,0,1,3.05-1,3.08,3.08,0,0,1,1,.16,2.14,2.14,0,0,1,.84.46,2.2,2.2,0,0,1,.57.79,2.81,2.81,0,0,1,.22,1.13v3.21c0,.27,0,.56,0,.86s.05.55.08.74h-1a3.17,3.17,0,0,1-.07-.56q0-.32,0-.6h0a2.78,2.78,0,0,1-1.05,1,3.22,3.22,0,0,1-1.49.32,3.58,3.58,0,0,1-.92-.13,2.36,2.36,0,0,1-.79-.4,2,2,0,0,1-.55-.66,1.88,1.88,0,0,1-.21-.91,2,2,0,0,1,.45-1.37,2.72,2.72,0,0,1,1.14-.74,5.34,5.34,0,0,1,1.46-.31c.52,0,1-.06,1.42-.06Zm-.52.83-1,0a5.59,5.59,0,0,0-1.11.19,2.29,2.29,0,0,0-.91.45,1,1,0,0,0-.38.84,1.17,1.17,0,0,0,.15.61,1.38,1.38,0,0,0,.39.41,1.78,1.78,0,0,0,.55.23,2.48,2.48,0,0,0,.61.07,2.19,2.19,0,0,0,1-.19,1.89,1.89,0,0,0,.68-.49,2,2,0,0,0,.41-.74,2.9,2.9,0,0,0,.13-.89v-.52Z"/><path class="cls-1" d="M217.2,27.25c0-.31,0-.64,0-1s0-.75,0-1.27h1v1.33h0a2.21,2.21,0,0,1,.31-.56,2.18,2.18,0,0,1,.48-.48,2.24,2.24,0,0,1,.67-.35,3,3,0,0,1,1.6,0l-.2,1a1.67,1.67,0,0,0-.58-.08,2.08,2.08,0,0,0-1,.23,2,2,0,0,0-.69.56,2.36,2.36,0,0,0-.41.74,2.44,2.44,0,0,0-.13.77v4h-1Z"/><path class="cls-1" d="M223.42,28.88a3.2,3.2,0,0,0,.26,1,2.63,2.63,0,0,0,.57.82,2.73,2.73,0,0,0,.81.54,2.59,2.59,0,0,0,1,.2,2.56,2.56,0,0,0,1.41-.38,2.66,2.66,0,0,0,.9-.86l.79.64a3.92,3.92,0,0,1-4.58,1.23,3.31,3.31,0,0,1-1.18-.79,3.76,3.76,0,0,1-.77-1.19,4.09,4.09,0,0,1,0-3,3.58,3.58,0,0,1,.77-1.2,3.5,3.5,0,0,1,1.15-.78,3.74,3.74,0,0,1,2.89,0,3.27,3.27,0,0,1,1.09.78,3.46,3.46,0,0,1,.67,1.13,4.22,4.22,0,0,1,.23,1.39v.46Zm4.89-.83a2.16,2.16,0,0,0-2.34-2.3,2.41,2.41,0,0,0-.95.19,2.66,2.66,0,0,0-1.36,1.25,1.88,1.88,0,0,0-.21.86Z"/><path class="cls-1" d="M10.58,47.12a2.16,2.16,0,0,0-.73-.67,2,2,0,0,0-1.07-.28,2.71,2.71,0,0,0-1.13.2,2.35,2.35,0,0,0-.85.6,2.45,2.45,0,0,0-.54.91,3.52,3.52,0,0,0,0,2.28,2.45,2.45,0,0,0,.54.91,2.35,2.35,0,0,0,.85.6,2.71,2.71,0,0,0,1.13.2,2,2,0,0,0,1.07-.28,2.06,2.06,0,0,0,.73-.67l.83.63a3.28,3.28,0,0,1-1.21.92,3.67,3.67,0,0,1-1.42.32,4,4,0,0,1-1.58-.27A3.48,3.48,0,0,1,6,51.73a3.41,3.41,0,0,1-.76-1.2,4.51,4.51,0,0,1,0-3A3.41,3.41,0,0,1,6,46.31a3.48,3.48,0,0,1,1.21-.79,4,4,0,0,1,1.58-.27,3.67,3.67,0,0,1,1.42.32,3.51,3.51,0,0,1,1.21.92Z"/><path class="cls-1" d="M20.81,49a3.89,3.89,0,0,1-.28,1.5,3.8,3.8,0,0,1-.79,1.2,3.65,3.65,0,0,1-1.21.78,4.11,4.11,0,0,1-1.55.29,4,4,0,0,1-1.53-.29,3.55,3.55,0,0,1-1.21-.78,3.63,3.63,0,0,1-.79-1.2,4.16,4.16,0,0,1,0-3,3.49,3.49,0,0,1,.79-1.19,3.58,3.58,0,0,1,1.21-.79A4,4,0,0,1,17,45.25a4.11,4.11,0,0,1,1.55.29,3.56,3.56,0,0,1,2,2A3.89,3.89,0,0,1,20.81,49ZM19.7,49a3.18,3.18,0,0,0-.19-1.12A2.8,2.8,0,0,0,19,47a2.54,2.54,0,0,0-.86-.61,3,3,0,0,0-2.26,0,2.53,2.53,0,0,0-1.38,1.51,3.24,3.24,0,0,0,0,2.24A2.52,2.52,0,0,0,15,51a2.6,2.6,0,0,0,.85.61,3,3,0,0,0,2.26,0A2.54,2.54,0,0,0,19,51a2.7,2.7,0,0,0,.54-.9A3.18,3.18,0,0,0,19.7,49Z"/><path class="cls-1" d="M24.41,45.44a5.46,5.46,0,0,1,0,.57c0,.19,0,.38,0,.58h0a2.22,2.22,0,0,1,.43-.54,3.07,3.07,0,0,1,.58-.42,3.44,3.44,0,0,1,.69-.28,3,3,0,0,1,.72-.1A2.64,2.64,0,0,1,29,46a3,3,0,0,1,.66,2.08V52.6h-1v-4a3.3,3.3,0,0,0-.42-1.83,1.68,1.68,0,0,0-1.54-.64l-.43.06a1.94,1.94,0,0,0-.74.34,2.35,2.35,0,0,0-.7.83,3.09,3.09,0,0,0-.31,1.53V52.6h-1V47c0-.19,0-.43,0-.73s0-.58-.05-.84Z"/><path class="cls-1" d="M36.13,46.36h-1.7V52.6h-1V46.36H31.89v-.92h1.52v-2a2.65,2.65,0,0,1,.66-2,2.48,2.48,0,0,1,1.76-.61l.44,0,.43.08-.18.92-.39-.08-.39,0a1.46,1.46,0,0,0-.68.14.89.89,0,0,0-.4.39,1.71,1.71,0,0,0-.19.59,5.39,5.39,0,0,0,0,.72v1.84h1.7Z"/><path class="cls-1" d="M39.6,42.68a.7.7,0,0,1-.23.53.76.76,0,0,1-.51.21.73.73,0,0,1-.51-.21.73.73,0,0,1,0-1.06.73.73,0,0,1,.51-.21.76.76,0,0,1,.51.21A.7.7,0,0,1,39.6,42.68Zm-.23,9.92h-1V45.44h1Z"/><path class="cls-1" d="M49.78,52.6h-1V51.41h0a2.73,2.73,0,0,1-.59.63,4.33,4.33,0,0,1-.71.43,3.36,3.36,0,0,1-.76.24,4,4,0,0,1-.74.08,4.08,4.08,0,0,1-1.55-.29,3.55,3.55,0,0,1-1.21-.78,3.63,3.63,0,0,1-.79-1.2,4,4,0,0,1,0-3,3.49,3.49,0,0,1,.79-1.19,3.58,3.58,0,0,1,1.21-.79,4.08,4.08,0,0,1,1.55-.29,4,4,0,0,1,.74.08,3.36,3.36,0,0,1,.76.24,4.33,4.33,0,0,1,.71.43,2.94,2.94,0,0,1,.59.63h0V41h1ZM43.21,49a3.42,3.42,0,0,0,.19,1.12A2.57,2.57,0,0,0,44,51a2.6,2.6,0,0,0,.85.61,2.93,2.93,0,0,0,1.14.22,3,3,0,0,0,1.14-.22A2.79,2.79,0,0,0,48,51a2.84,2.84,0,0,0,.6-.9A2.88,2.88,0,0,0,48,47a2.79,2.79,0,0,0-.92-.61,3,3,0,0,0-1.14-.22,2.93,2.93,0,0,0-1.14.22A2.6,2.6,0,0,0,44,47a2.66,2.66,0,0,0-.55.9A3.42,3.42,0,0,0,43.21,49Z"/><path class="cls-1" d="M53.49,49.3a3.2,3.2,0,0,0,.26,1,2.63,2.63,0,0,0,.57.82,2.73,2.73,0,0,0,.81.54,2.59,2.59,0,0,0,1,.2,2.56,2.56,0,0,0,1.41-.38,2.66,2.66,0,0,0,.9-.86l.79.64a4,4,0,0,1-1.43,1.17,4,4,0,0,1-1.67.35,3.83,3.83,0,0,1-1.48-.29,3.42,3.42,0,0,1-1.18-.78,4,4,0,0,1-.78-4.2,3.44,3.44,0,0,1,.77-1.19,3.52,3.52,0,0,1,1.15-.79,3.74,3.74,0,0,1,2.89,0,3.27,3.27,0,0,1,1.09.78,3.46,3.46,0,0,1,.67,1.13,4.22,4.22,0,0,1,.23,1.39v.46Zm4.89-.83A2.16,2.16,0,0,0,56,46.17a2.64,2.64,0,0,0-2.31,1.44,1.88,1.88,0,0,0-.21.86Z"/><path class="cls-1" d="M63.09,45.44c0,.19,0,.38,0,.57v.58h0a2,2,0,0,1,.43-.54,3.07,3.07,0,0,1,.58-.42,3.22,3.22,0,0,1,.69-.28,2.9,2.9,0,0,1,.71-.1,2.67,2.67,0,0,1,2,.73,3,3,0,0,1,.66,2.08V52.6h-1v-4a3.4,3.4,0,0,0-.41-1.83,1.69,1.69,0,0,0-1.54-.64l-.43.06a1.91,1.91,0,0,0-.75.34,2.46,2.46,0,0,0-.7.83,3.21,3.21,0,0,0-.31,1.53V52.6h-1V47c0-.19,0-.43,0-.73s0-.58-.06-.84Z"/><path class="cls-1" d="M75.18,46.36H73.1v4.22a2.25,2.25,0,0,0,.08.65.82.82,0,0,0,.22.39.7.7,0,0,0,.33.2,1.79,1.79,0,0,0,.42,0,2.14,2.14,0,0,0,.54-.08,2.25,2.25,0,0,0,.51-.2l0,.94a3.31,3.31,0,0,1-1.37.26,2.69,2.69,0,0,1-.61-.08,1.4,1.4,0,0,1-.57-.29,1.52,1.52,0,0,1-.43-.58,2.25,2.25,0,0,1-.17-1V46.36H70.57v-.92h1.52v-2h1v2h2.08Z"/><path class="cls-1" d="M79.21,51.87a.83.83,0,0,1-.23.57.82.82,0,0,1-1.2,0,.83.83,0,0,1-.23-.57.87.87,0,0,1,.23-.58.85.85,0,0,1,1.2,0A.87.87,0,0,1,79.21,51.87Z"/><rect class="cls-1" y="6.84" width="68.92" height="1"/><rect class="cls-1" x="1.28" y="63.64" width="238.03" height="1"/><rect class="cls-1" x="173.58" y="7.48" width="66.37" height="1"/></g></g></svg>